<?xml version="1.0" encoding="UTF-8" standalone="no"?>
<!DOCTYPE svg PUBLIC "-//W3C//DTD SVG 1.1//EN"
 "http://www.w3.org/Graphics/SVG/1.1/DTD/svg11.dtd">
<!-- Generated by graphviz version 2.43.0 (0)
 -->
<!-- Title: sourcetree Pages: 1 -->
<svg width="225pt" height="188pt"
 viewBox="0.00 0.00 225.00 188.00" xmlns="http://www.w3.org/2000/svg" xmlns:xlink="http://www.w3.org/1999/xlink">
<g id="graph0" class="graph" transform="scale(1 1) rotate(0) translate(4 184)">
<title>sourcetree</title>
<polygon fill="white" stroke="transparent" points="-4,4 -4,-184 221,-184 221,4 -4,4"/>
<!-- MulleObjCRegexFoundation -->
<g id="node1" class="node">
<title>MulleObjCRegexFoundation</title>
<polygon fill="yellow" stroke="black" points="217,-180 0,-180 0,-144 217,-144 217,-180"/>
<text text-anchor="middle" x="108.5" y="-158.3" font-family="Times,serif" font-size="14.00">MulleObjCRegexFoundation</text>
</g>
<!-- MulleObjCValueFoundation -->
<g id="node3" class="node">
<title>MulleObjCValueFoundation</title>
<g id="a_node3"><a xlink:href="https://github.com/MulleFoundation/MulleObjCValueFoundation" xlink:title="MulleObjCValueFoundation">
<polygon fill="lightgrey" stroke="black" points="214.5,-108 2.5,-108 2.5,-72 214.5,-72 214.5,-108"/>
<text text-anchor="middle" x="108.5" y="-86.3" font-family="Times,serif" font-size="14.00">MulleObjCValueFoundation</text>
</a>
</g>
</g>
<!-- MulleObjCRegexFoundation&#45;&gt;MulleObjCValueFoundation -->
<g id="edge1" class="edge">
<title>MulleObjCRegexFoundation&#45;&gt;MulleObjCValueFoundation</title>
<path fill="none" stroke="black" d="M108.5,-143.7C108.5,-135.98 108.5,-126.71 108.5,-118.11"/>
<polygon fill="black" stroke="black" points="112,-118.1 108.5,-108.1 105,-118.1 112,-118.1"/>
</g>
<!-- MulleObjC -->
<g id="node2" class="node">
<title>MulleObjC</title>
<g id="a_node2"><a xlink:href="https://github.com/mulle-objc/MulleObjC" xlink:title="MulleObjC">
<polygon fill="lightgrey" stroke="black" points="154.5,-36 62.5,-36 62.5,0 154.5,0 154.5,-36"/>
<text text-anchor="middle" x="108.5" y="-14.3" font-family="Times,serif" font-size="14.00">MulleObjC</text>
</a>
</g>
</g>
<!-- MulleObjCValueFoundation&#45;&gt;MulleObjC -->
<g id="edge2" class="edge">
<title>MulleObjCValueFoundation&#45;&gt;MulleObjC</title>
<path fill="none" stroke="black" d="M108.5,-71.7C108.5,-63.98 108.5,-54.71 108.5,-46.11"/>
<polygon fill="black" stroke="black" points="112,-46.1 108.5,-36.1 105,-46.1 112,-46.1"/>
</g>
</g>
</svg>
